<svg id="图层_1" data-name="图层 1" xmlns="http://www.w3.org/2000/svg" xmlns:xlink="http://www.w3.org/1999/xlink" viewBox="0 0 255.9 142.42"><defs><style>.cls-1{fill:url(#未命名的渐变_29);}</style><radialGradient id="未命名的渐变_29" cx="110.12" cy="18.35" r="61.49" gradientUnits="userSpaceOnUse"><stop offset="0" stop-color="#00beff"/><stop offset="0.17" stop-color="#00b9ff"/><stop offset="0.38" stop-color="#02aaff"/><stop offset="0.61" stop-color="#0491ff"/><stop offset="0.85" stop-color="#086fff"/><stop offset="1" stop-color="#0a55ff"/></radialGradient></defs><path class="cls-1" d="M152.49,58.29c-3.15-4-1-6.69-.72-7,10.87-14,12.48-31.69,2.85-42.57C147.83,1,137-1.51,125.86.85a.13.13,0,0,0,0,.25c5.93-.17,11.34,1.75,15,5.87,7.85,8.88,4.61,24.58-7.25,35.08S105.52,54.1,97.93,45c-5.75-6.91-2.08-16.76,2.28-19.67,6.29-4.19,12.61-.5,25.58,9.76h4.45s-8-7.21-11.62-11.75c0,0-8.93-10.5,2.43-19.53h-4.47s-10.12,9.72-22.39-1.18H89.34s13.1,10.8,7,18.19C84.53,35,85.63,51.92,95,61.46c9.72,9.9,26,11.2,40.57,3.45v0a14.7,14.7,0,0,1,8.64-1.65c5.75.93,11.88,5.22,11.88,5.22H162S154.9,61.35,152.49,58.29Z"/><path d="M0,131.6,10.86,98.69h7.85l10.9,32.91H23l-2-6.49H8.42l-2,6.49Zm10.17-12.07h9.07l-4.34-14h-.37Z"/><path d="M33.2,106.88h6.1V121.5a5,5,0,0,0,1.34,3.65,4.47,4.47,0,0,0,3.42,1.43A4.74,4.74,0,0,0,47.73,125a5.6,5.6,0,0,0,1.44-3.92V106.88H55.3V131.6H49.47v-3h-.39a6.58,6.58,0,0,1-2.61,2.57,8.43,8.43,0,0,1-4.3,1.05,8.55,8.55,0,0,1-6.52-2.59A9.17,9.17,0,0,1,33.2,123Z"/><path d="M60.14,111.77v-4.84H66a1.66,1.66,0,0,0,1.72-1.88v-5h5.79v6.82h9.36v4.89H73.53v11.36c0,2.28,1.12,3.4,3.39,3.4h5.31v5.07H75.59c-5.12,0-8.17-3-8.17-8.21V111.77Z"/><path d="M100.5,106.26A13,13,0,1,1,91,128.51a13.13,13.13,0,0,1,9.46-22.25Zm-5,18.32a6.47,6.47,0,0,0,5,2.09,6.58,6.58,0,0,0,5-2.11,8.15,8.15,0,0,0,0-10.65,6.57,6.57,0,0,0-5-2.09,6.39,6.39,0,0,0-5,2.09,8.24,8.24,0,0,0,0,10.67Z"/><path d="M124.65,121.21a4.83,4.83,0,0,0,1.84,3.78,7.22,7.22,0,0,0,4.8,1.5c3.55,0,5.76-1.52,5.76-4,0-4.15-5.37-4.18-10.17-5.65a11.28,11.28,0,0,1-5.1-2.82,9,9,0,0,1-2.2-6.45,8.66,8.66,0,0,1,3-6.77c2.05-1.81,4.8-2.71,8.31-2.71a13.33,13.33,0,0,1,8.15,2.48,9.74,9.74,0,0,1,3.61,7.67h-6.25c-.07-2.78-2-4.57-5.51-4.57s-5.16,1.61-5.16,3.81c0,3.81,5.46,3.76,10.33,5.23a12.09,12.09,0,0,1,5.16,2.87A9,9,0,0,1,143.5,122a9.24,9.24,0,0,1-3.31,7.35c-2.22,1.9-5.25,2.86-9.11,2.86a13,13,0,0,1-9-3.05,10.09,10.09,0,0,1-3.45-8Z"/><path d="M147.73,142.42V106.88h6V110h.39a7.22,7.22,0,0,1,1.59-1.77,8.92,8.92,0,0,1,1.44-1,9.55,9.55,0,0,1,4.34-1,11,11,0,0,1,8.47,3.56,13.3,13.3,0,0,1,3.24,9.32,13.77,13.77,0,0,1-3.19,9.43,10.48,10.48,0,0,1-8.27,3.65,9.15,9.15,0,0,1-5.12-1.42,7.46,7.46,0,0,1-2.41-2.39h-.36v14Zm7.85-17.77a6.25,6.25,0,0,0,4.8,2,6,6,0,0,0,4.79-2.09,8.76,8.76,0,0,0,0-10.74,6.17,6.17,0,0,0-4.84-2,6.07,6.07,0,0,0-4.82,2.09,7.82,7.82,0,0,0-1.81,5.32A7.61,7.61,0,0,0,155.58,124.65Z"/><path d="M180.38,109.91a10.47,10.47,0,0,1,8.26-3.65,9.26,9.26,0,0,1,5.12,1.45,8.85,8.85,0,0,1,2.41,2.36h.37v-3.19h6.1V131.6h-6v-3.14h-.37a6.81,6.81,0,0,1-1.58,1.74,7.31,7.31,0,0,1-1.43,1,9.4,9.4,0,0,1-4.38,1,11,11,0,0,1-8.47-3.55,13.2,13.2,0,0,1-3.24-9.28A13.89,13.89,0,0,1,180.38,109.91Zm4.84,14.76a6.16,6.16,0,0,0,4.82,2,6,6,0,0,0,4.82-2.14,7.77,7.77,0,0,0,1.81-5.3,7.66,7.66,0,0,0-1.88-5.44,6.23,6.23,0,0,0-4.8-2,6,6,0,0,0-4.77,2.09,7.88,7.88,0,0,0-1.84,5.37A7.78,7.78,0,0,0,185.22,124.67Z"/><path d="M211.48,131.6V111.77h-3.89v-4.89h9.72v4h.32a6.94,6.94,0,0,1,2.44-2.89,6.72,6.72,0,0,1,4.06-1.24h4.27v5.83h-4.55a5.71,5.71,0,0,0-4.59,1.95,8,8,0,0,0-1.67,5.33v11.7Z"/><path d="M233.15,131.6V96.35h6.1v20h.28l8.19-9.48h7.56L247,116l8.89,15.56H249l-6.2-10.94-3.58,3.94v7Z"/></svg>