<?xml version="1.0" standalone="no"?><!DOCTYPE svg PUBLIC "-//W3C//DTD SVG 1.1//EN" "http://www.w3.org/Graphics/SVG/1.1/DTD/svg11.dtd"><svg t="1691568407224" class="icon" viewBox="0 0 1024 1024" version="1.1" xmlns="http://www.w3.org/2000/svg" p-id="5224" xmlns:xlink="http://www.w3.org/1999/xlink" width="200" height="200"><path d="M386.420364 531.968c7.959273 91.229091 24.110545 284.113455 24.110545 319.301818 0.418909 3.490909 0.465455 6.981818 0.418909 10.472727-1.070545 42.821818-35.374545 76.8-77.032727 76.8h-3.677091c-45.149091-3.118545-79.313455-43.101091-76.334545-89.274181 0-27.461818 17.128727-224.581818 25.227636-319.069091 1.629091-18.618182-6.469818-36.677818-21.224727-47.662546a217.367273 217.367273 0 0 1-86.993455-185.390545c0-116.968727 72.145455-211.781818 161.047273-211.781818 88.855273 0 161.047273 94.813091 161.047273 213.783272a217.181091 217.181091 0 0 1-85.643637 185.297455 53.341091 53.341091 0 0 0-20.945454 47.476364z m448.930909-446.650182c14.429091 0 26.065455 11.915636 26.065454 26.670546v226.676363c0 44.125091-17.501091 84.154182-45.754182 113.105455-10.472727 10.705455-22.434909 19.921455-35.467636 27.275636a20.992 20.992 0 0 0-10.519273 20.666182l34.443637 319.115636c2.885818 65.163636-42.356364 119.854545-99.141818 119.854546-56.692364 0-101.934545-54.690909-99.141819-119.854546l36.584728-318.277818a20.247273 20.247273 0 0 0-10.472728-20.247273 160.721455 160.721455 0 0 1-83.549091-141.637818v-226.676363c0-14.754909 11.636364-26.670545 26.065455-26.670546 14.429091 0 26.112 11.915636 26.112 26.670546v219.973818c0 11.077818 8.704 20.014545 19.549091 20.014545 10.845091 0 19.549091-8.936727 19.549091-20.014545V111.988364c0-14.754909 11.682909-26.670545 26.112-26.670546 14.429091 0 26.065455 11.915636 26.065454 26.670546v226.676363c0 7.307636 5.911273 13.312 13.079273 13.312 7.168 0 13.032727-6.004364 13.032727-13.312v-226.676363c0-14.754909 11.636364-26.670545 26.065455-26.670546 14.429091 0 26.112 11.915636 26.112 26.670546v219.973818c0 11.077818 8.750545 20.014545 19.549091 20.014545 10.891636 0 19.549091-8.936727 19.549091-20.014545V111.988364c0-14.754909 11.682909-26.670545 26.112-26.670546z" fill="#3B8DFF" p-id="5225"></path></svg>