<?xml version="1.0" standalone="no"?><!DOCTYPE svg PUBLIC "-//W3C//DTD SVG 1.1//EN" "http://www.w3.org/Graphics/SVG/1.1/DTD/svg11.dtd"><svg t="1691568318322" class="icon" viewBox="0 0 1117 1024" version="1.1" xmlns="http://www.w3.org/2000/svg" p-id="4044" xmlns:xlink="http://www.w3.org/1999/xlink" width="218.1640625" height="200"><path d="M535.272727 581.818182m-256 0a256 256 0 1 0 512 0 256 256 0 1 0-512 0Z" fill="#FFD6AB" p-id="4045"></path><path d="M1105.92 513.722182c0-89.553455-52.922182-165.655273-128.558545-189.533091C906.705455 139.496727 742.4 16.756364 562.827636 16.756364c-182.178909 0-343.04 119.901091-414.394181 307.060363a197.352727 197.352727 0 0 0 101.748363 381.300364 36.491636 36.491636 0 0 0 27.554909-35.374546v-312.040727a36.491636 36.491636 0 0 0-27.554909-35.374545 197.166545 197.166545 0 0 0-20.340363-3.909818c65.489455-140.427636 191.860364-228.677818 332.986181-228.677819 141.684364 0 268.194909 88.715636 333.498182 229.888a161.512727 161.512727 0 0 0-12.846545 3.025455 36.491636 36.491636 0 0 0-26.437818 35.095273v312.040727c0 16.290909 10.798545 30.580364 26.437818 35.048727 5.632 1.582545 11.357091 2.885818 17.128727 3.816727-23.831273 96.069818-92.532364 157.975273-192.046545 173.614546a82.525091 82.525091 0 0 0-70.749091-40.168727h-101.236364a82.571636 82.571636 0 0 0 0 165.189818h101.282909a82.664727 82.664727 0 0 0 76.8-52.363637c137.728-20.340364 236.125091-113.757091 261.492364-251.205818 74.798545-23.365818 129.768727-99.653818 129.768727-189.998545zM204.8 638.138182h-2.792727a124.416 124.416 0 0 1 0-248.785455h2.792727V638.091636z m433.058909 296.168727h-101.282909a9.634909 9.634909 0 1 1 0-19.269818h101.282909a9.634909 9.634909 0 1 1 0 19.269818z m292.119273-296.168727v-248.738909c4.468364 0.093091 8.936727 0.512 13.358545 1.303272 51.106909 8.843636 89.646545 61.812364 89.646546 123.066182 0 67.816727-46.08 123.159273-103.005091 124.369455z" fill="#333333" p-id="4046"></path><path d="M389.166545 665.925818c103.703273 143.220364 224.721455 143.220364 335.127273 0.930909a34.909091 34.909091 0 1 0-55.156363-42.821818c-82.199273 105.984-147.362909 105.984-223.418182 0.930909a34.909091 34.909091 0 0 0-56.552728 40.96z" fill="#FF960B" p-id="4047"></path></svg>